<?xml version="1.0"?>
<svg id="Layer_1" data-name="Layer 1" xmlns="http://www.w3.org/2000/svg" viewBox="0 0 289.11 58.33">
  <defs><style>.cls-1{fill:#F5C518}.cls-2{fill:#1A3A6B}</style></defs>
  <g>
    <g>
      <path class="cls-1" d="M32.16,15.78c0-9.1,7.15-15.78,16.86-15.78s16.86,6.68,16.86,15.78-7.15,15.78-16.86,15.78-16.86-6.68-16.86-15.78ZM57.22,15.78c0-5.25-3.6-8.67-8.19-8.67s-8.19,3.42-8.19,8.67,3.6,8.67,8.19,8.67,8.19-3.42,8.19-8.67Z"></path>
      <path class="cls-1" d="M69.18.61h8.58v23.54h14.48v6.81h-23.06V.61Z"></path>
      <path class="cls-1" d="M94.4.61h14.35c10.06,0,16.95,5.85,16.95,15.17s-6.89,15.17-16.95,15.17h-14.35V.61ZM108.41,24.1c5.16,0,8.63-3.08,8.63-8.32s-3.47-8.32-8.63-8.32h-5.42v16.65h5.42Z"></path>
      <path class="cls-2" d="M138.83,15.78c0-9.23,7.07-15.78,16.69-15.78,5.59,0,10.1,2.04,13.05,5.72l-5.46,4.94c-1.91-2.3-4.25-3.55-7.15-3.55-4.99,0-8.45,3.47-8.45,8.67s3.47,8.67,8.45,8.67c2.9,0,5.25-1.26,7.15-3.55l5.46,4.94c-2.95,3.68-7.46,5.72-13.05,5.72-9.62,0-16.69-6.55-16.69-15.78Z"></path>
      <path class="cls-2" d="M168.96,15.78c0-9.1,7.15-15.78,16.86-15.78s16.86,6.68,16.86,15.78-7.15,15.78-16.86,15.78-16.86-6.68-16.86-15.78ZM194.01,15.78c0-5.25-3.6-8.67-8.19-8.67s-8.19,3.42-8.19,8.67,3.6,8.67,8.19,8.67,8.19-3.42,8.19-8.67Z"></path>
      <path class="cls-2" d="M225.87,25.06h-12.83l-2.38,5.9h-8.76L215.29.61h8.45l13.44,30.34h-8.93l-2.38-5.9ZM223.36,18.73l-3.9-9.71-3.9,9.71h7.8Z"></path>
      <path class="cls-2" d="M236.27,28.22l2.82-6.33c2.69,1.78,6.5,2.99,10.01,2.99s4.94-1,4.94-2.47c0-4.81-17.25-1.3-17.25-12.57,0-5.42,4.42-9.84,13.44-9.84,3.95,0,8.02.91,11.01,2.64l-2.64,6.37c-2.9-1.56-5.77-2.34-8.41-2.34-3.6,0-4.9,1.21-4.9,2.73,0,4.64,17.21,1.17,17.21,12.35,0,5.29-4.42,9.8-13.44,9.8-4.99,0-9.93-1.34-12.79-3.34Z"></path>
      <path class="cls-2" d="M271.25,7.41h-9.32V.61h27.18v6.81h-9.28v23.54h-8.58V7.41Z"></path>
    </g>
    <g>
      <path class="cls-2" d="M53.94,44.23v13.82h-3.91v-5.39h-5.33v5.39h-3.91v-13.82h3.91v5.19h5.33v-5.19h3.91Z"></path>
      <path class="cls-2" d="M61.36,51.14c0-4.15,3.26-7.19,7.68-7.19s7.68,3.04,7.68,7.19-3.26,7.19-7.68,7.19-7.68-3.04-7.68-7.19ZM72.78,51.14c0-2.39-1.64-3.95-3.73-3.95s-3.73,1.56-3.73,3.95,1.64,3.95,3.73,3.95,3.73-1.56,3.73-3.95Z"></path>
      <path class="cls-2" d="M96.63,58.05l-.04-7.33-3.55,5.96h-1.74l-3.53-5.77v7.13h-3.61v-13.82h3.22l4.86,7.98,4.74-7.98h3.22l.04,13.82h-3.59Z"></path>
      <path class="cls-2" d="M119.46,55.03v3.02h-11.1v-13.82h10.84v3.02h-6.97v2.33h6.14v2.92h-6.14v2.53h7.23Z"></path>
      <path class="cls-2" d="M151.28,54.26c0,2.39-1.97,3.79-5.69,3.79h-7.46v-13.82h7.07c3.63,0,5.41,1.48,5.41,3.61,0,1.32-.67,2.39-1.86,3,1.56.55,2.53,1.74,2.53,3.42ZM142,47.05v2.67h2.69c1.3,0,1.97-.45,1.97-1.34s-.67-1.32-1.97-1.32h-2.69ZM147.33,53.82c0-.95-.71-1.4-2.05-1.4h-3.28v2.8h3.28c1.34,0,2.05-.45,2.05-1.4Z"></path>
      <path class="cls-2" d="M158.57,51.89v-7.66h3.91v7.54c0,2.37.99,3.32,2.63,3.32s2.61-.95,2.61-3.32v-7.54h3.85v7.66c0,4.13-2.41,6.44-6.5,6.44s-6.5-2.31-6.5-6.44Z"></path>
      <path class="cls-2" d="M186.79,53.09v4.96h-3.91v-5.02l-5.27-8.81h4.13l3.28,5.49,3.28-5.49h3.79l-5.29,8.87Z"></path>
      <path class="cls-2" d="M209.48,55.03v3.02h-11.1v-13.82h10.84v3.02h-6.97v2.33h6.14v2.92h-6.14v2.53h7.23Z"></path>
      <path class="cls-2" d="M223.07,54.38h-2.13v3.67h-3.91v-13.82h6.32c3.77,0,6.14,1.95,6.14,5.11,0,2.03-.99,3.53-2.71,4.36l2.98,4.34h-4.19l-2.51-3.67ZM223.1,47.31h-2.17v4.05h2.17c1.62,0,2.43-.75,2.43-2.01s-.81-2.03-2.43-2.03Z"></path>
      <path class="cls-2" d="M236.04,56.81l1.28-2.88c1.22.81,2.96,1.36,4.56,1.36s2.25-.45,2.25-1.13c0-2.19-7.86-.59-7.86-5.73,0-2.47,2.01-4.48,6.12-4.48,1.8,0,3.65.41,5.02,1.2l-1.2,2.9c-1.32-.71-2.63-1.07-3.83-1.07-1.64,0-2.23.55-2.23,1.24,0,2.11,7.84.53,7.84,5.63,0,2.41-2.01,4.46-6.12,4.46-2.27,0-4.52-.61-5.82-1.52Z"></path>
    </g>
  </g>
  <path class="cls-1" d="M21.89,15.15h-3.76v5.55h3.76v2.75c-1.52.69-3.03,1-4.64,1-5.12,0-8.58-3.55-8.58-8.67s3.47-8.67,8.67-8.67c2.9,0,5.29,1.08,7.37,3.38l5.46-4.94C27.18,1.95,22.59,0,16.91,0,7.07,0,0,6.55,0,15.78s7.07,15.78,16.73,15.78c4.42,0,9.23-1.34,12.75-3.86v-12.57h-7.59v.02Z"></path>
</svg>