<svg xmlns="http://www.w3.org/2000/svg" viewBox="0 0 1200 620" role="img" aria-labelledby="title desc">
  <title id="title">South Florida service area map</title>
  <desc id="desc">Stylized coastal map background for Miami-Dade, Broward, and Palm Beach Counties.</desc>
  <defs>
    <linearGradient id="water" x1="0" y1="0" x2="1" y2="1"><stop offset="0" stop-color="#d1dcef"/><stop offset="1" stop-color="#eef3f9"/></linearGradient>
    <linearGradient id="land" x1="0" y1="0" x2="0" y2="1"><stop offset="0" stop-color="#f5f3ef"/><stop offset="1" stop-color="#e6ecf5"/></linearGradient>
    <filter id="shadow" x="-20%" y="-20%" width="140%" height="140%"><feDropShadow dx="0" dy="18" stdDeviation="18" flood-color="#1a3a6b" flood-opacity="0.22"/></filter>
  </defs>
  <rect width="1200" height="620" fill="url(#water)"/>
  <path d="M0 450 C150 380 240 390 330 335 C430 274 550 258 620 180 C720 70 860 34 1200 0 L1200 620 L0 620 Z" fill="#b7c8df" opacity="0.55"/>
  <path d="M135 520 C230 440 315 390 388 340 C452 296 503 245 552 179 C593 124 666 90 744 73 C831 54 936 42 1080 20 C1001 82 917 140 844 207 C760 285 705 360 663 450 C626 529 557 585 432 612 L135 612 Z" fill="url(#land)" filter="url(#shadow)"/>
  <path d="M743 75 C699 154 665 236 635 313 C611 374 596 438 562 494 C536 537 500 574 440 610" fill="none" stroke="#1a3a6b" stroke-width="5" stroke-opacity="0.18" stroke-linecap="round"/>
  <path d="M642 305 C726 283 812 277 904 291" fill="none" stroke="#295CA2" stroke-width="3" stroke-opacity="0.22" stroke-dasharray="12 14"/>
  <path d="M596 402 C690 390 778 399 872 428" fill="none" stroke="#295CA2" stroke-width="3" stroke-opacity="0.22" stroke-dasharray="12 14"/>
  <circle cx="710" cy="170" r="10" fill="#f5c518"/><circle cx="682" cy="310" r="10" fill="#f5c518"/><circle cx="630" cy="462" r="10" fill="#f5c518"/>
  <g font-family="Source Sans 3, Arial, sans-serif" font-weight="800" fill="#1a3a6b" font-size="26">
    <text x="736" y="178">Palm Beach</text>
    <text x="708" y="318">Broward</text>
    <text x="656" y="470">Miami-Dade</text>
  </g>
  <g stroke="#ffffff" stroke-opacity="0.34" stroke-width="2">
    <path d="M70 90h230M70 140h310M70 190h250M70 240h190"/>
  </g>
</svg>
