<svg width="1200" height="900" viewBox="0 0 1200 900" fill="none" xmlns="http://www.w3.org/2000/svg">
  <defs>
    <linearGradient id="bg" x1="0" y1="0" x2="0" y2="1">
      <stop offset="0%" stop-color="#EAF2FF"/>
      <stop offset="100%" stop-color="#F8FAFC"/>
    </linearGradient>
    <linearGradient id="house" x1="0" y1="0" x2="1" y2="1">
      <stop offset="0%" stop-color="#FFFFFF"/>
      <stop offset="100%" stop-color="#EEF3FB"/>
    </linearGradient>
  </defs>

  <rect width="1200" height="900" fill="url(#bg)"/>
  <circle cx="160" cy="140" r="70" fill="#D5B238" fill-opacity="0.22"/>
  <circle cx="1050" cy="120" r="96" fill="#6F93C8" fill-opacity="0.20"/>

  <rect x="0" y="680" width="1200" height="220" fill="#D7E7F7"/>

  <g transform="translate(210,190)">
    <polygon points="390,20 760,280 20,280" fill="#2F63AE"/>
    <rect x="70" y="260" width="640" height="390" rx="18" fill="url(#house)" stroke="#D5DFEE" stroke-width="4"/>

    <rect x="130" y="340" width="160" height="140" rx="10" fill="#FFFFFF" stroke="#D8E2F1" stroke-width="4"/>
    <rect x="335" y="340" width="160" height="140" rx="10" fill="#FFFFFF" stroke="#D8E2F1" stroke-width="4"/>
    <rect x="540" y="340" width="110" height="310" rx="12" fill="#FFFFFF" stroke="#D8E2F1" stroke-width="4"/>

    <rect x="560" y="470" width="70" height="180" rx="10" fill="#2F63AE"/>

    <rect x="145" y="360" width="130" height="90" rx="8" fill="#EAF2FF"/>
    <rect x="350" y="360" width="130" height="90" rx="8" fill="#EAF2FF"/>

    <rect x="0" y="650" width="780" height="34" rx="12" fill="#2F63AE" fill-opacity="0.10"/>
  </g>

  <g transform="translate(860,420)">
    <rect x="0" y="130" width="16" height="160" fill="#2F63AE"/>
    <path d="M16 130 C110 115, 110 40, 16 20 Z" fill="#15803D"/>
    <path d="M16 155 C120 140, 120 70, 16 50 Z" fill="#1C9250"/>
  </g>

  <g transform="translate(120,470)">
    <rect x="0" y="110" width="14" height="130" fill="#2F63AE"/>
    <path d="M14 110 C96 96, 98 38, 14 22 Z" fill="#15803D"/>
    <path d="M14 130 C102 120, 102 66, 14 50 Z" fill="#1C9250"/>
  </g>
</svg>
